<svg width="48" height="72" viewBox="0 0 48 72" fill="none" xmlns="http://www.w3.org/2000/svg">
<path d="M24 0C10.9636 0 0.358093 11.9312 0.358093 26.5971C0.358093 31.4253 2.28282 36.618 2.36348 36.837C2.98513 38.497 4.21172 41.0754 5.09621 42.5867L21.3062 70.218C21.9696 71.3507 22.9514 72 24 72C25.0486 72 26.0304 71.3507 26.6938 70.2196L42.9052 42.5867C43.791 41.0754 45.0162 38.497 45.6379 36.837C45.7185 36.6196 47.6419 31.4269 47.6419 26.5971C47.6419 11.9312 37.0364 0 24 0ZM43.0734 35.6229C42.5185 37.1108 41.3768 39.5093 40.5827 40.8641L24.3713 68.497C24.0514 69.043 23.9499 69.043 23.6301 68.497L7.41868 40.8641C6.62459 39.5093 5.48282 37.1093 4.92793 35.6214C4.90429 35.5572 3.13949 30.7776 3.13949 26.5971C3.13949 13.6568 12.4975 3.12907 24 3.12907C35.5025 3.12907 44.8605 13.6568 44.8605 26.5971C44.8605 30.7838 43.0915 35.576 43.0734 35.6229Z" fill="#322153"/>
<path d="M24 12.5179C17.098 12.5179 11.4837 18.8355 11.4837 26.5987C11.4837 34.362 17.098 40.6796 24 40.6796C30.9021 40.6796 36.5163 34.362 36.5163 26.5987C36.5163 18.8355 30.9021 12.5179 24 12.5179ZM24 37.5505C18.6333 37.5505 14.2651 32.6378 14.2651 26.5987C14.2651 20.5596 18.6333 15.647 24 15.647C29.3667 15.647 33.7349 20.5596 33.7349 26.5987C33.7349 32.6378 29.3667 37.5505 24 37.5505Z" fill="#322153"/>
</svg>
